# 3ds Max Wavefront OBJ Exporter v0.97b - (c)2007 guruware
# File Created: 21.09.2015 16:07:40

mtllib 3d-model.mtl

#
# object Group_002
#

v  -81.3506 71.8390 19.3672
v  81.3507 71.8390 19.3672
v  81.3507 305.0610 -4.0668
v  -81.3506 305.0610 -4.0668
# 4 vertices

vn 0.0000 0.0958 0.9954
# 1 vertex normals

vt 0.0000 0.0000 0.0000
vt 1.0000 0.0000 0.0000
vt 1.0000 1.0000 0.0000
vt 0.0000 1.0000 0.0000
# 4 texture coords

g Group_002
usemtl wire_006134006
s off
f 1/1/1 2/2/1 3/3/1 4/4/1 
# 1 polygons

#
# object Group_001
#

v  -151.1300 4.1532 39.4599
v  -151.1300 0.4771 1.2825
v  151.1300 0.4771 1.2825
v  151.1300 4.1532 39.4599
v  -151.1300 372.1382 -34.5044
v  151.1300 372.1382 -34.5044
v  -151.1300 375.8143 3.6730
v  151.1300 375.8143 3.6730
v  -141.2063 365.9364 4.6242
v  -141.2063 14.0311 38.5088
v  -141.2063 12.7360 25.0582
v  -141.2063 364.6412 -8.8264
v  141.2064 364.6412 -8.8264
v  141.2064 365.9364 4.6242
v  141.2064 12.7360 25.0582
v  141.2064 14.0311 38.5088
v  -81.3506 69.4581 -10.3611
v  81.3507 69.4581 -10.3611
v  81.3507 302.2030 -32.7718
v  -81.3506 302.2030 -32.7718
v  -81.3506 72.3162 19.3212
v  81.3507 72.3162 19.3212
v  81.3507 305.0611 -3.0895
v  -81.3506 305.0611 -3.0895
# 24 vertices

vn 0.0000 -0.9954 0.0958
vn 0.0000 -0.0958 -0.9954
vn 0.0000 0.9954 -0.0958
vn 1.0000 0.0000 -0.0000
vn -1.0000 0.0000 -0.0000
vn 0.0000 0.0958 0.9954
# 6 vertex normals

vt 0.0000 0.0000 0.0000
# 1 texture coords

g Group_001
usemtl wire_087224198
s off
f 5/5/2 6/5/2 7/5/2 8/5/2 
f 7/5/3 6/5/3 9/5/3 10/5/3 
f 9/5/4 11/5/4 12/5/4 10/5/4 
f 13/5/5 14/5/5 15/5/5 16/5/5 
f 13/5/2 16/5/2 17/5/2 18/5/2 
f 5/5/6 11/5/6 9/5/6 6/5/6 
f 19/5/6 20/5/6 18/5/6 17/5/6 
f 12/5/5 8/5/5 7/5/5 10/5/5 
f 15/5/4 14/5/4 20/5/4 19/5/4 
f 20/5/7 5/5/7 8/5/7 12/5/7 
f 18/5/7 20/5/7 12/5/7 13/5/7 
f 13/5/7 12/5/7 11/5/7 14/5/7 
f 14/5/7 11/5/7 5/5/7 20/5/7 
f 21/5/7 22/5/7 23/5/7 24/5/7 
f 21/5/4 25/5/4 26/5/4 22/5/4 
f 26/5/6 27/5/6 23/5/6 22/5/6 
f 28/5/2 24/5/2 23/5/2 27/5/2 
f 24/5/5 28/5/5 25/5/5 21/5/5 
f 26/5/7 15/5/7 19/5/7 17/5/7 
f 27/5/7 26/5/7 17/5/7 28/5/7 
f 28/5/7 17/5/7 16/5/7 25/5/7 
f 25/5/7 16/5/7 15/5/7 26/5/7 
# 22 polygons

